<?xml version="1.0" encoding="UTF-8" standalone="no"?>
<!-- Generator: Adobe Illustrator 21.1.0, SVG Export Plug-In . SVG Version: 6.00 Build 0)  -->

<svg
   version="1.1"
   id="Calque_1"
   x="0px"
   y="0px"
   viewBox="0 0 155.1 79.4"
   style="enable-background:new 0 0 155.1 79.4;"
   width="450"
   height="230.367505"
   xml:space="preserve"
   sodipodi:docname="xeus-octave-logo-carved-raw.svg"
   inkscape:version="1.2.1 (2ed6d7ae0b, 2022-08-22, custom)"
   xmlns:inkscape="http://www.inkscape.org/namespaces/inkscape"
   xmlns:sodipodi="http://sodipodi.sourceforge.net/DTD/sodipodi-0.dtd"
   xmlns:xlink="http://www.w3.org/1999/xlink"
   xmlns="http://www.w3.org/2000/svg"
   xmlns:svg="http://www.w3.org/2000/svg"><sodipodi:namedview
   id="namedview12"
   pagecolor="#ffffff"
   bordercolor="#666666"
   borderopacity="1.0"
   inkscape:pageshadow="2"
   inkscape:pageopacity="0.0"
   inkscape:pagecheckerboard="0"
   showgrid="false"
   inkscape:zoom="2.4371028"
   inkscape:cx="199.82743"
   inkscape:cy="131.71377"
   inkscape:window-width="1920"
   inkscape:window-height="1043"
   inkscape:window-x="0"
   inkscape:window-y="0"
   inkscape:window-maximized="1"
   inkscape:current-layer="g5966"
   inkscape:showpageshadow="2"
   inkscape:deskcolor="#d1d1d1" /><defs
   id="defs21">
		
		
		
		
		
	
	
	
	
	
	

	
	
	
	
	

	
	
<radialGradient
   gradientTransform="matrix(0.22914,-0.24901,0.76436,0.83064,-272.853,-159.695)"
   gradientUnits="userSpaceOnUse"
   xlink:href="#a"
   id="b"
   fy="395.049"
   fx="182.984"
   r="148.953"
   cy="395.049"
   cx="182.984" /><linearGradient
   id="a"><stop
     offset="0"
     stop-color="#008cbe"
     id="stop5929" /><stop
     offset="1"
     stop-color="#b2ffff"
     id="stop5931" /></linearGradient></defs>
<style
   type="text/css"
   id="style2">
	.st0{fill:#666666;}
	.st1{fill:#40B3C3;}
	.st2{opacity:0.28;fill:#40B3C3;}
</style>
<g
   id="g5897"
   inkscape:label="Xeus"><path
     class="st1"
     d="m 144.2,10.3 c -5.3,0 -10.1,2.4 -10.1,8.5 0,6.1 4.3,8 9.6,9.4 4.9,1.4 9,2.4 9,6.9 0,5.4 -3.9,7.1 -8.2,7.1 -3.9,0 -7.6,-1 -10.4,-2.8 l -1.1,2.1 c 3.3,2.2 7.3,3 11.6,3 5.7,0 10.6,-2.5 10.6,-9.4 0,-6.2 -4.8,-7.6 -10.4,-9.2 -5.1,-1.4 -8.1,-2.7 -8.1,-7 0,-4.9 3.4,-6.3 7.7,-6.3 2.8,0 5.6,0.4 7.9,1.7 l 1,-2.2 c -3,-1.4 -6.1,-1.8 -9.1,-1.8 z"
     id="path8"
     inkscape:label="s" /><path
     class="st1"
     d="m 119.7,10.2 v 18.2 c 0,8.1 -1.2,13.8 -8.8,13.8 h -0.7 c -7.7,0 -8.8,-5.7 -8.8,-13.8 V 10.3 c -0.9,0.5 -1.9,1 -2.6,1.7 v 17.2 c 0,7.2 1.3,15.3 11,15.3 h 1.5 c 9.6,0 11,-8.1 11.1,-15.4 V 11.9 c -0.9,-0.7 -1.8,-1.2 -2.7,-1.7 z"
     id="path10"
     inkscape:label="u" /><path
     class="st1"
     d="m 76.5,10.3 c -6,0 -13.1,2.2 -13.1,17.2 0,13.9 6.1,17.1 13.6,17.1 4,0 7.6,-0.7 10.6,-2.6 l -1,-2.2 c -3.1,1.8 -6,2.4 -9.6,2.4 -5.9,0 -10.6,-2.1 -11,-12.7 v -1.3 h 22.9 v 0 -0.9 C 89,14.5 84.3,10.3 76.5,10.3 Z M 65.9,25.9 c 0.2,-11.2 5.2,-13.3 10.5,-13.3 5.9,0 9.9,3.1 9.9,13.3 z"
     id="path12"
     inkscape:label="e" /><g
     id="g5901"
     inkscape:label="X"
     style="enable-background:new 0 0 155.1 79.4"><path
       id="path4143_4_"
       class="st1"
       d="m 5.5,0 c 0.1,0 0.3,0.1 0.4,0.1 2.7,0.9 5,2.2 5,2.3 2.1,1.5 4,3.4 5.3,5.6 0.5,0.7 5.7,8.6 9.5,14.2 -0.9,1.3 -1.7,2.5 -2.3,3.5 0,-0.1 -0.1,-0.1 -0.1,-0.2 C 19.4,19.7 12.6,9.5 12.1,8.7 11.2,7.3 9.9,6 8.3,5 8.3,5 6.6,3.9 4.4,3.2 3.5,2.9 2,2.6 0,2.4 V 49.2 C 2,49 3.5,48.7 4.4,48.4 6.6,47.7 8.3,46.6 8.3,46.6 10,45.5 11.2,44.2 12.2,42.8 12.7,42.1 19.5,31.8 23.4,26 26.6,21.1 34.7,8.9 35.3,8.1 36.7,5.9 38.5,4 40.6,2.5 c 0,-0.1 2.3,-1.4 5,-2.3 L 46.1,0 Z m 46,2.4 C 49.5,2.6 48,2.9 47.1,3.2 44.9,3.9 43.2,5 43.2,5 41.6,6 40.3,7.3 39.3,8.8 38.8,9.5 32,19.8 28.1,25.6 25,30.4 16.9,42.6 16.3,43.4 14.9,45.6 13.1,47.5 11,49 11,49.1 8.7,50.4 6,51.3 L 5.4,51.4 H 46 l -0.4,-0.1 c -2.7,-0.9 -5,-2.2 -5,-2.3 -2.1,-1.5 -4,-3.4 -5.3,-5.6 -0.5,-0.7 -5.7,-8.6 -9.5,-14.2 0.9,-1.3 1.7,-2.5 2.3,-3.5 0,0.1 0.1,0.1 0.1,0.2 3.9,5.8 10.7,16 11.2,16.8 1,1.4 2.2,2.7 3.9,3.8 0,0 1.7,1.1 3.9,1.8 0.9,0.3 2.4,0.5 4.4,0.8 v 2.3 h 0.1 v -49 z"
       inkscape:label="X-effect"
       style="display:inline" /><path
       id="path7-3_3_"
       class="st2"
       d="m 28,25.7 c -0.6,0.9 -1.4,2.1 -2.3,3.5 3.8,5.7 9,13.6 9.5,14.2 1.4,2.2 3.2,4.1 5.3,5.6 0,0.1 2.3,1.4 5,2.3 0.2,0 0.4,0.1 0.6,0.1 h 5.3 V 49 C 49.4,48.8 47.9,48.5 47,48.2 44.8,47.5 43.1,46.4 43.1,46.4 41.5,45.4 40.2,44.1 39.2,42.6 38.8,42 32,31.8 28.1,26 v 0 c 0,-0.1 0,-0.2 -0.1,-0.3 M 5.3,0 H 0 V 2.4 C 2,2.6 3.5,2.9 4.4,3.2 6.6,3.9 8.3,5 8.3,5 c 1.6,1 2.9,2.3 3.9,3.8 0.5,0.7 7.3,11 11.2,16.8 v 0 c 0,0.1 0.1,0.1 0.1,0.2 0.6,-0.9 1.4,-2.1 2.3,-3.5 C 22,16.6 16.8,8.7 16.3,8 14.9,5.8 13.1,3.9 11,2.4 11,2.3 8.7,1 6,0.1 5.8,0.1 5.6,0 5.3,0"
       style="display:inline"
       inkscape:label="X" /></g></g>
<g
   id="g5966"
   inkscape:label="Octave"
   style="display:inline;fill:#666666;fill-opacity:1"><text
     xml:space="preserve"
     style="font-size:22.0587px;line-height:1.25;font-family:sans-serif;-inkscape-font-specification:sans-serif;fill:#666666;fill-opacity:1;stroke-width:0.393515"
     x="88.536446"
     y="73.021019"
     id="text2085"
     inkscape:label="Text"><tspan
       sodipodi:role="line"
       id="tspan2083"
       style="font-style:normal;font-variant:normal;font-weight:bold;font-stretch:normal;font-size:22.0587px;font-family:sans-serif;-inkscape-font-specification:'sans-serif Bold';fill:#666666;fill-opacity:1;stroke-width:0.393515"
       x="88.536446"
       y="73.021019">ctave</tspan></text><g
     transform="matrix(0.65828982,0,0,0.65828982,26.237608,-10.768164)"
     id="g1454"
     inkscape:label="Logo"
     style="display:inline;fill:#666666;fill-opacity:1"><rect
       y="99.494003"
       x="85.382004"
       ry="0.76999998"
       rx="0.76999998"
       height="4.3499999"
       width="4.3499999"
       fill="#ff7f2a"
       stroke="#d45500"
       stroke-width="0.744"
       id="rect1448"
       style="fill:#666666;fill-opacity:1;stroke:#666666;stroke-opacity:1" /><rect
       y="105.225"
       x="60.926998"
       ry="1.813"
       rx="1.813"
       height="10.245"
       width="10.245"
       fill="#ff7f2a"
       stroke="#d45500"
       stroke-width="0.744"
       id="rect1450"
       style="fill:#666666;fill-opacity:1;stroke:#666666;stroke-opacity:1" /><rect
       y="118.637"
       x="87.404999"
       ry="1.095"
       rx="1.095"
       height="6.1900001"
       width="6.1900001"
       fill="#ff7f2a"
       stroke="#d45500"
       stroke-width="0.744"
       id="rect1452"
       style="fill:#666666;fill-opacity:1;stroke:#666666;stroke-opacity:1" /><path
       id="path1357"
       style="display:inline;fill:#666666;fill-opacity:1"
       d="m 74.488996,94.009076 c -3.094695,0.04926 -5.946318,1.185871 -8.057184,3.479959 -1.670414,1.815077 -2.669766,4.135625 -3.037167,6.690965 1.821582,-0.003 3.643173,-0.001 5.464855,-0.002 0.01398,-0.002 0.02794,-0.002 0.04193,-0.004 0.387086,-1.63895 1.12806,-3.12881 2.242595,-4.339979 1.785869,-1.940744 4.227159,-2.847472 6.842317,-2.782536 2.199391,0.05461 4.521339,0.799295 6.679722,2.192487 0.277046,-0.411177 0.697898,-0.712097 1.210776,-0.776165 -3.567275,-2.984884 -7.652919,-4.51805 -11.387841,-4.458601 z m 16.109254,9.828354 c -0.03582,0.0868 -0.07521,0.17277 -0.123736,0.25668 -0.155166,0.24051 -0.346782,0.40809 -0.560393,0.52869 2.647003,4.23392 3.268587,9.20523 1.656636,12.96676 0.109764,-1.2e-4 0.219524,2.8e-4 0.329282,0 0.137109,-0.0207 0.276353,-0.0301 0.416205,-0.0286 0.526693,0.006 1.056523,0.16705 1.474611,0.46938 0.84853,-4.41407 -0.272353,-9.62843 -3.192605,-14.19287 z m -19.279361,11.8971 c -0.374172,0.36499 -0.843934,0.62945 -1.383598,0.72606 -1.3062,0.0795 -2.617879,0.0713 -3.92991,0.0593 0.87809,1.56827 1.955667,3.07782 3.237599,4.47087 5.863422,6.37087 13.938227,8.2316 19.363216,4.90651 -0.952795,-0.0368 -1.899641,-0.57607 -2.151582,-1.54415 -0.0971,-0.60745 -0.114619,-1.22382 -0.110442,-1.84275 -4.086512,1.37642 -9.314112,-0.20941 -13.219345,-4.45247 -0.676764,-0.73558 -1.278056,-1.51517 -1.805938,-2.32338 z" /></g></g></svg>
