<?xml version="1.0" encoding="UTF-8" standalone="no"?>
<!-- Generator: Adobe Illustrator 19.2.1, SVG Export Plug-In . SVG Version: 6.00 Build 0)  -->

<svg
   xmlns:dc="http://purl.org/dc/elements/1.1/"
   xmlns:cc="http://creativecommons.org/ns#"
   xmlns:rdf="http://www.w3.org/1999/02/22-rdf-syntax-ns#"
   xmlns:svg="http://www.w3.org/2000/svg"
   xmlns="http://www.w3.org/2000/svg"
   xmlns:sodipodi="http://sodipodi.sourceforge.net/DTD/sodipodi-0.dtd"
   xmlns:inkscape="http://www.inkscape.org/namespaces/inkscape"
   version="1.1"
   id="Calque_1"
   x="0px"
   y="0px"
   viewBox="0 0 580 580"
   xml:space="preserve"
   inkscape:version="0.91 r13725"
   sodipodi:docname="square-quantstack-color-noborder.svg"
   width="580"
   height="580"><metadata
     id="metadata11"><rdf:RDF><cc:Work
         rdf:about=""><dc:format>image/svg+xml</dc:format><dc:type
           rdf:resource="http://purl.org/dc/dcmitype/StillImage" /><dc:title /></cc:Work></rdf:RDF></metadata><defs
     id="defs9" /><sodipodi:namedview
     pagecolor="#ffffff"
     bordercolor="#666666"
     borderopacity="1"
     objecttolerance="10"
     gridtolerance="10"
     guidetolerance="10"
     inkscape:pageopacity="0"
     inkscape:pageshadow="2"
     inkscape:window-width="1847"
     inkscape:window-height="1056"
     id="namedview7"
     showgrid="false"
     fit-margin-top="24"
     fit-margin-left="24"
     fit-margin-right="24"
     fit-margin-bottom="24"
     inkscape:zoom="0.59291162"
     inkscape:cx="400.89698"
     inkscape:cy="-97.618167"
     inkscape:window-x="73"
     inkscape:window-y="24"
     inkscape:window-maximized="1"
     inkscape:current-layer="Calque_1" /><style
     type="text/css"
     id="style3">
	.st0{fill:#111212;}
</style><rect
     style="fill:#fff482;fill-opacity:1;fill-rule:evenodd;stroke:none;stroke-width:24;stroke-linejoin:miter;stroke-miterlimit:4;stroke-dasharray:none;stroke-opacity:1"
     id="rect4162"
     width="580"
     height="580"
     x="0"
     y="-8.5265128e-14"
     rx="46.791679"
     ry="49.836205" /><path
     class="st0"
     d="m 552.22599,443.81615 c -2.53626,14.26647 -10.46207,35.40196 -33.92247,54.52959 -19.02195,15.53459 -43.53912,23.4604 -72.91747,23.4604 -21.13549,0 -45.0186,-4.2271 -71.12094,-12.57562 l -5.70659,-1.79652 17.96517,-35.1906 4.12143,1.26813 c 32.12595,9.828 76.08779,16.9084 103.14122,-5.1782 11.41317,-9.29962 18.17653,-19.86737 20.1844,-31.28053 4.01575,-22.50931 -12.15291,-41.42558 -12.25859,-41.63693 -7.92581,-8.77124 -19.2333,-12.46995 -39.62905,-19.02195 -8.55988,-2.74762 -46.07539,-16.38001 -55.37501,-20.1844 -10.88478,-4.54413 -22.19227,-11.41317 -22.19227,-11.41317 -24.51717,-15.74595 -36.45873,-37.51551 -36.45873,-66.47114 0,-54.95229 35.61331,-86.54986 97.75167,-86.54986 25.78531,0 47.55487,3.38168 66.47114,10.46207 l 11.7302,4.33278 -17.43678,34.2395 -9.29962,-3.276 c -14.58349,-5.28387 -30.75215,-7.71446 -50.72519,-7.71446 -40.68584,0 -59.60211,15.21756 -59.60211,47.97758 0,20.50144 9.61666,31.9146 35.61332,42.37668 l 40.58015,15.21755 c 34.34519,12.25859 55.05797,19.76169 67.84495,34.45086 2.95897,3.48736 28.32156,34.23951 21.24117,73.97424 z m -258.06442,-14.68917 3.48736,2.53626 -17.75382,34.97925 -4.75549,-3.276 c -33.60544,-23.35472 -59.39074,-57.2772 -74.71398,-98.38574 -14.68917,5.28387 -31.49189,7.92581 -51.1479,7.92581 -85.915803,0 -124.171054,-49.66842 -124.171054,-161.05249 0,-111.27839 38.255251,-160.946806 124.276724,-160.946806 85.9158,0 124.17105,49.668416 124.17105,161.052486 0,64.56894 -12.46994,106.83994 -39.20635,132.30821 11.83588,35.93035 32.02028,64.46327 59.81346,84.85902 z M 234.13676,211.95975 c 0,-77.77863 -13.84375,-122.902913 -84.85902,-122.902913 -71.015278,0 -84.859029,45.018603 -84.859029,122.902913 0,77.77863 13.843751,122.90292 84.859029,122.90292 71.01527,0 84.85902,-45.12429 84.85902,-122.90292 z"
     id="path5"
     inkscape:connector-curvature="0"
     style="fill:#111212" /></svg>