<svg id="Calque_1" data-name="Calque 1" xmlns="http://www.w3.org/2000/svg" viewBox="0 0 500 500"><defs><style>.cls-1{fill:#5dbcaf;}.cls-2{fill:#268380;}.cls-3{fill:#f8e14b;}</style></defs><title>BLEU-proposition-icone</title><rect class="cls-1" width="500" height="500"/><path class="cls-2" d="M250,405c-85.47,0-155-69.53-155-155S164.53,95,250,95s155,69.53,155,155S335.47,405,250,405Zm0-275.49A120.49,120.49,0,1,0,370.49,250,120.62,120.62,0,0,0,250,129.51Z"/><path class="cls-3" d="M250,405c-85.47,0-155-69.53-155-155a17.26,17.26,0,1,1,34.51,0A120.62,120.62,0,0,0,250,370.49,17.26,17.26,0,1,1,250,405Z"/></svg>