<?xml version="1.0" encoding="UTF-8" standalone="no"?>
<svg
   xmlns:dc="http://purl.org/dc/elements/1.1/"
   xmlns:cc="http://creativecommons.org/ns#"
   xmlns:rdf="http://www.w3.org/1999/02/22-rdf-syntax-ns#"
   xmlns:svg="http://www.w3.org/2000/svg"
   xmlns="http://www.w3.org/2000/svg"
   xmlns:sodipodi="http://sodipodi.sourceforge.net/DTD/sodipodi-0.dtd"
   xmlns:inkscape="http://www.inkscape.org/namespaces/inkscape"
   id="Calque_1"
   data-name="Calque 1"
   viewBox="0 0 500 500"
   version="1.1"
   sodipodi:docname="BLEU-proposition-icone-transparent.svg"
   inkscape:version="0.92.3 (2405546, 2018-03-11)">
  <metadata
     id="metadata17">
    <rdf:RDF>
      <cc:Work
         rdf:about="">
        <dc:format>image/svg+xml</dc:format>
        <dc:type
           rdf:resource="http://purl.org/dc/dcmitype/StillImage" />
        <dc:title>BLEU-proposition-icone</dc:title>
      </cc:Work>
    </rdf:RDF>
  </metadata>
  <sodipodi:namedview
     pagecolor="#ffffff"
     bordercolor="#666666"
     borderopacity="1"
     objecttolerance="10"
     gridtolerance="10"
     guidetolerance="10"
     inkscape:pageopacity="0"
     inkscape:pageshadow="2"
     inkscape:window-width="874"
     inkscape:window-height="492"
     id="namedview15"
     showgrid="false"
     inkscape:zoom="0.472"
     inkscape:cx="250"
     inkscape:cy="250"
     inkscape:window-x="134"
     inkscape:window-y="55"
     inkscape:window-maximized="0"
     inkscape:current-layer="Calque_1" />
  <defs
     id="defs4">
    <style
       id="style2">.cls-1{fill:#5dbcaf;}.cls-2{fill:#268380;}.cls-3{fill:#f8e14b;}</style>
  </defs>
  <title
     id="title6">BLEU-proposition-icone</title>
  <path
     class="cls-2"
     d="M250,405c-85.47,0-155-69.53-155-155S164.53,95,250,95s155,69.53,155,155S335.47,405,250,405Zm0-275.49A120.49,120.49,0,1,0,370.49,250,120.62,120.62,0,0,0,250,129.51Z"
     id="path10" />
  <path
     class="cls-3"
     d="M250,405c-85.47,0-155-69.53-155-155a17.26,17.26,0,1,1,34.51,0A120.62,120.62,0,0,0,250,370.49,17.26,17.26,0,1,1,250,405Z"
     id="path12" />
</svg>
