<svg id="Calque_1" data-name="Calque 1" xmlns="http://www.w3.org/2000/svg" viewBox="0 0 500 500"><defs><style>.cls-1{fill:#1a2221;}.cls-2{fill:#f38c02;}.cls-3{fill:#555454;}</style></defs><title>NOIR-illustration-1</title><rect class="cls-1" width="500" height="500"/><path class="cls-2" d="M167.3,95h0a21.62,21.62,0,0,1,21.62,21.62V405a0,0,0,0,1,0,0H145.68a0,0,0,0,1,0,0V116.62A21.62,21.62,0,0,1,167.3,95Z"/><path class="cls-3" d="M250.51,157.52h0a21.54,21.54,0,0,1,21.54,21.54V405a0,0,0,0,1,0,0H229a0,0,0,0,1,0,0V179.06A21.54,21.54,0,0,1,250.51,157.52Z"/><path class="cls-3" d="M333.72,222.65h0a20.6,20.6,0,0,1,20.6,20.6V405a0,0,0,0,1,0,0h-41.2a0,0,0,0,1,0,0V243.25A20.6,20.6,0,0,1,333.72,222.65Z"/></svg>