<svg id="Calque_1" data-name="Calque 1" xmlns="http://www.w3.org/2000/svg" viewBox="0 0 500 500"><defs><style>.cls-1{fill:#1a2221;}.cls-2{fill:#f38c02;}.cls-3{fill:#555454;}</style></defs><title>NOIR-illustration-3</title><rect class="cls-1" width="500" height="500"/><circle class="cls-2" cx="137.27" cy="131.64" r="36.64"/><path class="cls-3" d="M286.64,131.64A36.64,36.64,0,1,1,250,95,36.64,36.64,0,0,1,286.64,131.64Zm76.09,36.63a36.64,36.64,0,1,0-36.64-36.63A36.63,36.63,0,0,0,362.73,168.27ZM137.27,213.36A36.64,36.64,0,1,0,173.91,250,36.64,36.64,0,0,0,137.27,213.36Zm112.73,0A36.64,36.64,0,1,0,286.64,250,36.65,36.65,0,0,0,250,213.36Zm112.73,0A36.64,36.64,0,1,0,399.36,250,36.64,36.64,0,0,0,362.73,213.36ZM137.27,331.73a36.64,36.64,0,1,0,36.64,36.63A36.63,36.63,0,0,0,137.27,331.73Zm112.73,0a36.64,36.64,0,1,0,36.64,36.63A36.64,36.64,0,0,0,250,331.73Zm112.73,0a36.64,36.64,0,1,0,36.63,36.63A36.63,36.63,0,0,0,362.73,331.73Z"/></svg>