<svg id="Calque_1" data-name="Calque 1" xmlns="http://www.w3.org/2000/svg" viewBox="0 0 500 500"><defs><style>.cls-1{fill:#1a2221;}.cls-2{fill:#f38c02;}.cls-3{fill:#fff;}</style></defs><title>NOIR-proposition-icone-2</title><rect class="cls-1" width="500" height="500"/><path class="cls-2" d="M324.2,178.57a97.92,97.92,0,0,1-97.8-97.81,12.6,12.6,0,1,1,25.19,0,72.7,72.7,0,0,0,72.61,72.61,12.6,12.6,0,1,1,0,25.2Z"/><path class="cls-3" d="M400.92,312.45c1.79-2.46,2.69-3.84,2.69-4.17C403.61,308.61,402.71,310,400.92,312.45Zm-27.85,10c-1.79,6.47-18.85,63.53-64.24,72.42a68.06,68.06,0,0,1-13.14,1.34c-10,0-18.85-2.55-26.41-7.64-15.08-10.15-23-28.95-21.67-50.23l-5.29,6.33a179,179,0,0,1-14.19,15.14c-4.9,4.64-9.87,8.94-14.72,12.74-12.08,9.16-24.11,15.39-35.86,18.55A63.11,63.11,0,0,1,159.21,394a49.8,49.8,0,0,1-15.29-2.37,43,43,0,0,1-17.53-11.28,49,49,0,0,1-10.69-18.64c-5.92-18.53-1.41-35.8,2.68-50.33a154.73,154.73,0,0,1,20.82-44.74,206.26,206.26,0,0,1,26.07-30c11.13-10.53,25.27-23.64,46.94-31.37a135.45,135.45,0,0,1,13.39-3.78c11.3-3.25,26.76-5.71,42.1,1.6,4.16,2,15.16,7.24,21.52,19.48,8.16,15.72,4.23,34-5.28,56.41-11.53,27.19-10.76,39.46-10.55,58.3.22,20.81,4.92,27.6,9.57,30.91,5.85,4.18,14.08,4,21.17,2.59,31.47-6.17,45.2-54.44,45.33-54.93a12.25,12.25,0,0,1,23.61,6.55ZM255.38,282.7c10.53-22.12,17-39.41,12.1-48.83-2.58-5-7.81-7.46-10.32-8.66-10.07-4.8-21.13-1.62-32.52,2.36-30,10.49-52.21,34.8-65.55,53.35l-.07-.05A138.25,138.25,0,0,0,142.28,317c-4.1,13.25-5.4,24.81-3.88,34.35,1.66,10.49,6.32,17,13.82,19.45a22.24,22.24,0,0,0,7,1A49.24,49.24,0,0,0,171,370.12c7.62-1.91,16.56-6.67,26.66-14.2,8-6.32,17.76-16.07,29-29C236,316.1,245.7,301.21,255.38,282.7Z"/></svg>