<svg id="Calque_1" data-name="Calque 1" xmlns="http://www.w3.org/2000/svg" viewBox="0 0 500 500"><defs><style>.cls-1{fill:#1a2221;}.cls-2{fill:#555454;}.cls-3{fill:#f38c02;}</style></defs><title>NOIR-illustration</title><rect class="cls-1" width="500" height="500"/><path class="cls-2" d="M391.05,343H109.39A14.24,14.24,0,0,1,95,329.72,14,14,0,0,1,109,315.13H390.61A14.25,14.25,0,0,1,405,328.45,14,14,0,0,1,391.05,343Z"/><path class="cls-3" d="M108.94,276.18a14,14,0,0,1-12.41-20.3l35.81-70.07C145.11,160.72,162,157,170.87,157s25.75,3.75,38.53,28.86l24.25,47.64c5.11,10.06,10.56,13.62,13.67,13.62s8.55-3.56,13.66-13.62l24.25-47.64C298,160.72,314.86,157,323.76,157h0c8.91,0,25.76,3.76,38.54,28.87a14,14,0,0,1-24.87,12.66c-5.11-10.06-10.56-13.62-13.67-13.62s-8.55,3.56-13.66,13.62l-24.25,47.64C273.07,271.25,256.22,275,247.32,275s-25.76-3.75-38.54-28.87l-24.24-47.64c-5.12-10.06-10.56-13.62-13.67-13.62s-8.55,3.56-13.67,13.62l-35.82,70.09A14,14,0,0,1,108.94,276.18Z"/></svg>